<svg xmlns="http://www.w3.org/2000/svg"><path d="M1003,485L1153,328L994,351Z" fill="rgb(144,209,193)" stroke="rgb(144,209,193)" stroke-width="1.51"></path><path d="M1003,485L1228,584L1153,328Z" fill="rgb(125,199,198)" stroke="rgb(125,199,198)" stroke-width="1.51"></path><path d="M1153,328L1195,107L994,351Z" fill="rgb(157,211,202)" stroke="rgb(157,211,202)" stroke-width="1.51"></path><path d="M1403,338L1195,107L1153,328Z" fill="rgb(149,203,204)" stroke="rgb(149,203,204)" stroke-width="1.51"></path><path d="M1003,485L1132,734L1228,584Z" fill="rgb(100,190,205)" stroke="rgb(100,190,205)" stroke-width="1.51"></path><path d="M1228,584L1403,338L1153,328Z" fill="rgb(126,194,195)" stroke="rgb(126,194,195)" stroke-width="1.51"></path><path d="M1433,498L1403,338L1228,584Z" fill="rgb(110,182,194)" stroke="rgb(110,182,194)" stroke-width="1.51"></path><path d="M994,351L760,556L1003,485Z" fill="rgb(141,210,191)" stroke="rgb(141,210,191)" stroke-width="1.51"></path><path d="M1003,485L1007,781L1132,734Z" fill="rgb(97,188,206)" stroke="rgb(97,188,206)" stroke-width="1.51"></path><path d="M913,67L755,283L994,351Z" fill="rgb(175,223,198)" stroke="rgb(175,223,198)" stroke-width="1.51"></path><path d="M755,283L760,556L994,351Z" fill="rgb(159,217,185)" stroke="rgb(159,217,185)" stroke-width="1.51"></path><path d="M1366,721L1433,498L1228,584Z" fill="rgb(85,174,201)" stroke="rgb(85,174,201)" stroke-width="1.51"></path><path d="M760,556L1007,781L1003,485Z" fill="rgb(118,199,199)" stroke="rgb(118,199,199)" stroke-width="1.51"></path><path d="M1195,107L913,67L994,351Z" fill="rgb(168,218,207)" stroke="rgb(168,218,207)" stroke-width="1.51"></path><path d="M1174,1001L1366,721L1132,734Z" fill="rgb(60,156,199)" stroke="rgb(60,156,199)" stroke-width="1.51"></path><path d="M1132,734L1366,721L1228,584Z" fill="rgb(75,175,209)" stroke="rgb(75,175,209)" stroke-width="1.51"></path><path d="M913,67L742,169L755,283Z" fill="rgb(186,228,199)" stroke="rgb(186,228,199)" stroke-width="1.51"></path><path d="M755,283L531,334L760,556Z" fill="rgb(173,223,183)" stroke="rgb(173,223,183)" stroke-width="1.51"></path><path d="M1403,338L1432,106L1195,107Z" fill="rgb(149,196,205)" stroke="rgb(149,196,205)" stroke-width="1.51"></path><path d="M1195,107L986,-93L913,67Z" fill="rgb(181,223,218)" stroke="rgb(181,223,218)" stroke-width="1.51"></path><path d="M1594,165L1432,106L1403,338Z" fill="rgb(141,185,198)" stroke="rgb(141,185,198)" stroke-width="1.51"></path><path d="M760,556L771,761L1007,781Z" fill="rgb(115,192,198)" stroke="rgb(115,192,198)" stroke-width="1.51"></path><path d="M1432,106L1216,-48L1195,107Z" fill="rgb(163,206,218)" stroke="rgb(163,206,218)" stroke-width="1.51"></path><path d="M1433,498L1609,313L1403,338Z" fill="rgb(120,177,187)" stroke="rgb(120,177,187)" stroke-width="1.51"></path><path d="M1366,721L1547,572L1433,498Z" fill="rgb(80,166,196)" stroke="rgb(80,166,196)" stroke-width="1.51"></path><path d="M1216,-48L986,-93L1195,107Z" fill="rgb(176,219,224)" stroke="rgb(176,219,224)" stroke-width="1.51"></path><path d="M913,67L791,-113L742,169Z" fill="rgb(196,232,210)" stroke="rgb(196,232,210)" stroke-width="1.51"></path><path d="M1547,572L1609,313L1433,498Z" fill="rgb(105,169,186)" stroke="rgb(105,169,186)" stroke-width="1.51"></path><path d="M1547,572L1763,527L1609,313Z" fill="rgb(100,160,182)" stroke="rgb(100,160,182)" stroke-width="1.51"></path><path d="M1366,721L1554,712L1547,572Z" fill="rgb(62,156,198)" stroke="rgb(62,156,198)" stroke-width="1.51"></path><path d="M1543,916L1554,712L1366,721Z" fill="rgb(45,140,190)" stroke="rgb(45,140,190)" stroke-width="1.51"></path><path d="M568,86L531,334L742,169Z" fill="rgb(200,233,198)" stroke="rgb(200,233,198)" stroke-width="1.51"></path><path d="M742,169L531,334L755,283Z" fill="rgb(190,230,191)" stroke="rgb(190,230,191)" stroke-width="1.51"></path><path d="M760,556L542,722L771,761Z" fill="rgb(132,200,197)" stroke="rgb(132,200,197)" stroke-width="1.51"></path><path d="M1432,106L1356,-133L1216,-48Z" fill="rgb(165,203,220)" stroke="rgb(165,203,220)" stroke-width="1.51"></path><path d="M1609,313L1594,165L1403,338Z" fill="rgb(134,178,191)" stroke="rgb(134,178,191)" stroke-width="1.51"></path><path d="M1007,781L1174,1001L1132,734Z" fill="rgb(73,160,196)" stroke="rgb(73,160,196)" stroke-width="1.51"></path><path d="M771,761L917,973L1007,781Z" fill="rgb(97,169,190)" stroke="rgb(97,169,190)" stroke-width="1.51"></path><path d="M917,973L1174,1001L1007,781Z" fill="rgb(77,152,189)" stroke="rgb(77,152,189)" stroke-width="1.51"></path><path d="M986,-93L791,-113L913,67Z" fill="rgb(193,230,216)" stroke="rgb(193,230,216)" stroke-width="1.51"></path><path d="M1128,-305L927,-272L986,-93Z" fill="rgb(184,225,219)" stroke="rgb(184,225,219)" stroke-width="1.51"></path><path d="M986,-93L927,-272L791,-113Z" fill="rgb(193,230,216)" stroke="rgb(193,230,216)" stroke-width="1.51"></path><path d="M1618,-149L1356,-133L1432,106Z" fill="rgb(158,192,214)" stroke="rgb(158,192,214)" stroke-width="1.51"></path><path d="M791,-113L568,86L742,169Z" fill="rgb(205,236,207)" stroke="rgb(205,236,207)" stroke-width="1.51"></path><path d="M531,334L478,561L760,556Z" fill="rgb(166,220,190)" stroke="rgb(166,220,190)" stroke-width="1.51"></path><path d="M771,761L706,971L917,973Z" fill="rgb(105,163,183)" stroke="rgb(105,163,183)" stroke-width="1.51"></path><path d="M364,281L478,561L531,334Z" fill="rgb(189,229,191)" stroke="rgb(189,229,191)" stroke-width="1.51"></path><path d="M478,561L542,722L760,556Z" fill="rgb(148,209,197)" stroke="rgb(148,209,197)" stroke-width="1.51"></path><path d="M1174,1001L1343,1013L1366,721Z" fill="rgb(48,138,190)" stroke="rgb(48,138,190)" stroke-width="1.51"></path><path d="M542,722L706,971L771,761Z" fill="rgb(122,180,188)" stroke="rgb(122,180,188)" stroke-width="1.51"></path><path d="M1004,1229L1152,1195L1174,1001Z" fill="rgb(62,123,167)" stroke="rgb(62,123,167)" stroke-width="1.51"></path><path d="M1174,1001L1152,1195L1343,1013Z" fill="rgb(49,119,170)" stroke="rgb(49,119,170)" stroke-width="1.51"></path><path d="M1554,712L1763,527L1547,572Z" fill="rgb(72,151,190)" stroke="rgb(72,151,190)" stroke-width="1.51"></path><path d="M1343,1013L1543,916L1366,721Z" fill="rgb(39,132,186)" stroke="rgb(39,132,186)" stroke-width="1.51"></path><path d="M1609,313L1814,132L1594,165Z" fill="rgb(135,169,192)" stroke="rgb(135,169,192)" stroke-width="1.51"></path><path d="M1862,764L1763,527L1554,712Z" fill="rgb(54,137,187)" stroke="rgb(54,137,187)" stroke-width="1.51"></path><path d="M1128,-305L986,-93L1216,-48Z" fill="rgb(178,220,223)" stroke="rgb(178,220,223)" stroke-width="1.51"></path><path d="M791,-113L496,-148L568,86Z" fill="rgb(215,240,214)" stroke="rgb(215,240,214)" stroke-width="1.51"></path><path d="M1356,-133L1128,-305L1216,-48Z" fill="rgb(170,212,224)" stroke="rgb(170,212,224)" stroke-width="1.51"></path><path d="M568,86L364,281L531,334Z" fill="rgb(206,236,199)" stroke="rgb(206,236,199)" stroke-width="1.51"></path><path d="M478,561L335,756L542,722Z" fill="rgb(151,207,206)" stroke="rgb(151,207,206)" stroke-width="1.51"></path><path d="M341,70L364,281L568,86Z" fill="rgb(216,240,209)" stroke="rgb(216,240,209)" stroke-width="1.51"></path><path d="M1763,527L1841,312L1609,313Z" fill="rgb(112,156,173)" stroke="rgb(112,156,173)" stroke-width="1.51"></path><path d="M1594,165L1618,-149L1432,106Z" fill="rgb(152,184,208)" stroke="rgb(152,184,208)" stroke-width="1.51"></path><path d="M1814,132L1618,-149L1594,165Z" fill="rgb(146,174,203)" stroke="rgb(146,174,203)" stroke-width="1.51"></path><path d="M1356,-133L1351,-349L1128,-305Z" fill="rgb(168,208,222)" stroke="rgb(168,208,222)" stroke-width="1.51"></path><path d="M1841,312L1814,132L1609,313Z" fill="rgb(129,160,180)" stroke="rgb(129,160,180)" stroke-width="1.51"></path><path d="M1004,1229L1174,1001L917,973Z" fill="rgb(71,129,167)" stroke="rgb(71,129,167)" stroke-width="1.51"></path><path d="M1343,1013L1382,1183L1543,916Z" fill="rgb(32,109,167)" stroke="rgb(32,109,167)" stroke-width="1.51"></path><path d="M706,971L752,1147L917,973Z" fill="rgb(99,144,167)" stroke="rgb(99,144,167)" stroke-width="1.51"></path><path d="M518,1009L752,1147L706,971Z" fill="rgb(110,146,164)" stroke="rgb(110,146,164)" stroke-width="1.51"></path><path d="M1618,-149L1351,-349L1356,-133Z" fill="rgb(159,194,215)" stroke="rgb(159,194,215)" stroke-width="1.51"></path><path d="M1128,-305L754,-325L927,-272Z" fill="rgb(190,229,217)" stroke="rgb(190,229,217)" stroke-width="1.51"></path><path d="M927,-272L754,-325L791,-113Z" fill="rgb(199,233,214)" stroke="rgb(199,233,214)" stroke-width="1.51"></path><path d="M1351,-349L754,-325L1128,-305Z" fill="rgb(180,222,222)" stroke="rgb(180,222,222)" stroke-width="1.51"></path><path d="M364,281L297,595L478,561Z" fill="rgb(179,225,197)" stroke="rgb(179,225,197)" stroke-width="1.51"></path><path d="M542,722L518,1009L706,971Z" fill="rgb(124,170,185)" stroke="rgb(124,170,185)" stroke-width="1.51"></path><path d="M754,-325L496,-148L791,-113Z" fill="rgb(211,238,212)" stroke="rgb(211,238,212)" stroke-width="1.51"></path><path d="M364,281L84,491L297,595Z" fill="rgb(188,229,202)" stroke="rgb(188,229,202)" stroke-width="1.51"></path><path d="M353,-60L341,70L568,86Z" fill="rgb(226,244,218)" stroke="rgb(226,244,218)" stroke-width="1.51"></path><path d="M752,1147L1004,1229L917,973Z" fill="rgb(86,133,161)" stroke="rgb(86,133,161)" stroke-width="1.51"></path><path d="M379,945L518,1009L542,722Z" fill="rgb(133,174,189)" stroke="rgb(133,174,189)" stroke-width="1.51"></path><path d="M297,595L335,756L478,561Z" fill="rgb(159,212,207)" stroke="rgb(159,212,207)" stroke-width="1.51"></path><path d="M1117,1377L1382,1183L1152,1195Z" fill="rgb(49,118,169)" stroke="rgb(49,118,169)" stroke-width="1.51"></path><path d="M1152,1195L1382,1183L1343,1013Z" fill="rgb(43,112,165)" stroke="rgb(43,112,165)" stroke-width="1.51"></path><path d="M1543,916L1862,764L1554,712Z" fill="rgb(34,126,183)" stroke="rgb(34,126,183)" stroke-width="1.51"></path><path d="M1763,527L1958,510L1841,312Z" fill="rgb(98,142,165)" stroke="rgb(98,142,165)" stroke-width="1.51"></path><path d="M1814,960L1862,764L1543,916Z" fill="rgb(21,107,171)" stroke="rgb(21,107,171)" stroke-width="1.51"></path><path d="M496,-148L353,-60L568,86Z" fill="rgb(226,244,219)" stroke="rgb(226,244,219)" stroke-width="1.51"></path><path d="M333,-347L353,-60L496,-148Z" fill="rgb(229,245,222)" stroke="rgb(229,245,222)" stroke-width="1.51"></path><path d="M1841,312L2019,128L1814,132Z" fill="rgb(128,149,173)" stroke="rgb(128,149,173)" stroke-width="1.51"></path><path d="M1862,764L1958,510L1763,527Z" fill="rgb(68,131,171)" stroke="rgb(68,131,171)" stroke-width="1.51"></path><path d="M518,1009L491,1120L752,1147Z" fill="rgb(113,142,161)" stroke="rgb(113,142,161)" stroke-width="1.51"></path><path d="M335,756L379,945L542,722Z" fill="rgb(140,188,197)" stroke="rgb(140,188,197)" stroke-width="1.51"></path><path d="M131,985L379,945L335,756Z" fill="rgb(141,177,198)" stroke="rgb(141,177,198)" stroke-width="1.51"></path><path d="M1618,-149L1642,-330L1351,-349Z" fill="rgb(155,186,212)" stroke="rgb(155,186,212)" stroke-width="1.51"></path><path d="M1814,132L1836,-82L1618,-149Z" fill="rgb(147,167,199)" stroke="rgb(147,167,199)" stroke-width="1.51"></path><path d="M1970,-92L1836,-82L1814,132Z" fill="rgb(142,157,188)" stroke="rgb(142,157,188)" stroke-width="1.51"></path><path d="M1862,764L2049,748L1958,510Z" fill="rgb(50,119,169)" stroke="rgb(50,119,169)" stroke-width="1.51"></path><path d="M1749,1130L1814,960L1543,916Z" fill="rgb(10,93,161)" stroke="rgb(10,93,161)" stroke-width="1.51"></path><path d="M754,-325L549,-334L496,-148Z" fill="rgb(217,240,214)" stroke="rgb(217,240,214)" stroke-width="1.51"></path><path d="M1351,-349L549,-334L754,-325Z" fill="rgb(194,231,215)" stroke="rgb(194,231,215)" stroke-width="1.51"></path><path d="M379,945L491,1120L518,1009Z" fill="rgb(125,154,174)" stroke="rgb(125,154,174)" stroke-width="1.51"></path><path d="M983,1410L1117,1377L1004,1229Z" fill="rgb(70,127,165)" stroke="rgb(70,127,165)" stroke-width="1.51"></path><path d="M1792,-298L1642,-330L1618,-149Z" fill="rgb(150,174,206)" stroke="rgb(150,174,206)" stroke-width="1.51"></path><path d="M1382,1183L1641,1196L1543,916Z" fill="rgb(25,95,156)" stroke="rgb(25,95,156)" stroke-width="1.51"></path><path d="M1611,1325L1641,1196L1382,1183Z" fill="rgb(23,93,155)" stroke="rgb(23,93,155)" stroke-width="1.51"></path><path d="M1004,1229L1117,1377L1152,1195Z" fill="rgb(64,124,166)" stroke="rgb(64,124,166)" stroke-width="1.51"></path><path d="M983,1410L1004,1229L726,1427Z" fill="rgb(85,132,161)" stroke="rgb(85,132,161)" stroke-width="1.51"></path><path d="M1836,-82L1792,-298L1618,-149Z" fill="rgb(147,168,200)" stroke="rgb(147,168,200)" stroke-width="1.51"></path><path d="M2060,316L2019,128L1841,312Z" fill="rgb(123,145,165)" stroke="rgb(123,145,165)" stroke-width="1.51"></path><path d="M1641,1196L1749,1130L1543,916Z" fill="rgb(14,86,152)" stroke="rgb(14,86,152)" stroke-width="1.51"></path><path d="M1958,510L2060,316L1841,312Z" fill="rgb(107,139,158)" stroke="rgb(107,139,158)" stroke-width="1.51"></path><path d="M2254,307L2060,316L2276,572Z" fill="rgb(105,139,157)" stroke="rgb(105,139,157)" stroke-width="1.51"></path><path d="M1970,-92L1792,-298L1836,-82Z" fill="rgb(143,157,189)" stroke="rgb(143,157,189)" stroke-width="1.51"></path><path d="M726,1427L1004,1229L752,1147Z" fill="rgb(93,135,159)" stroke="rgb(93,135,159)" stroke-width="1.51"></path><path d="M297,595L111,752L335,756Z" fill="rgb(157,206,213)" stroke="rgb(157,206,213)" stroke-width="1.51"></path><path d="M379,945L282,1231L491,1120Z" fill="rgb(125,146,168)" stroke="rgb(125,146,168)" stroke-width="1.51"></path><path d="M64,321L84,491L364,281Z" fill="rgb(205,236,205)" stroke="rgb(205,236,205)" stroke-width="1.51"></path><path d="M64,321L364,281L78,172Z" fill="rgb(219,241,212)" stroke="rgb(219,241,212)" stroke-width="1.51"></path><path d="M1814,960L1964,908L1862,764Z" fill="rgb(22,95,158)" stroke="rgb(22,95,158)" stroke-width="1.51"></path><path d="M1996,1160L1964,908L1814,960Z" fill="rgb(9,74,140)" stroke="rgb(9,74,140)" stroke-width="1.51"></path><path d="M2019,128L1970,-92L1814,132Z" fill="rgb(136,150,180)" stroke="rgb(136,150,180)" stroke-width="1.51"></path><path d="M1964,908L2049,748L1862,764Z" fill="rgb(30,101,160)" stroke="rgb(30,101,160)" stroke-width="1.51"></path><path d="M78,172L364,281L341,70Z" fill="rgb(220,242,215)" stroke="rgb(220,242,215)" stroke-width="1.51"></path><path d="M78,172L341,70L58,-60Z" fill="rgb(235,247,228)" stroke="rgb(235,247,228)" stroke-width="1.51"></path><path d="M84,491L111,752L297,595Z" fill="rgb(171,218,215)" stroke="rgb(171,218,215)" stroke-width="1.51"></path><path d="M131,985L111,752L-143,903Z" fill="rgb(153,183,209)" stroke="rgb(153,183,209)" stroke-width="1.51"></path><path d="M58,-60L341,70L353,-60Z" fill="rgb(235,248,229)" stroke="rgb(235,248,229)" stroke-width="1.51"></path><path d="M1641,1196L1827,1335L1749,1130Z" fill="rgb(9,79,145)" stroke="rgb(9,79,145)" stroke-width="1.51"></path><path d="M1749,1130L1996,1160L1814,960Z" fill="rgb(9,69,135)" stroke="rgb(9,69,135)" stroke-width="1.51"></path><path d="M1430,1423L1611,1325L1382,1183Z" fill="rgb(28,99,158)" stroke="rgb(28,99,158)" stroke-width="1.51"></path><path d="M1430,1423L1382,1183L1117,1377Z" fill="rgb(42,111,165)" stroke="rgb(42,111,165)" stroke-width="1.51"></path><path d="M491,1120L566,1333L752,1147Z" fill="rgb(113,141,160)" stroke="rgb(113,141,160)" stroke-width="1.51"></path><path d="M282,1231L566,1333L491,1120Z" fill="rgb(123,145,165)" stroke="rgb(123,145,165)" stroke-width="1.51"></path><path d="M549,-334L333,-347L496,-148Z" fill="rgb(227,244,219)" stroke="rgb(227,244,219)" stroke-width="1.51"></path><path d="M1351,-349L333,-347L549,-334Z" fill="rgb(206,236,211)" stroke="rgb(206,236,211)" stroke-width="1.51"></path><path d="M983,1410L1430,1423L1117,1377Z" fill="rgb(54,120,169)" stroke="rgb(54,120,169)" stroke-width="1.51"></path><path d="M983,1410L726,1427L1430,1423Z" fill="rgb(69,126,165)" stroke="rgb(69,126,165)" stroke-width="1.51"></path><path d="M566,1333L726,1427L752,1147Z" fill="rgb(107,139,158)" stroke="rgb(107,139,158)" stroke-width="1.51"></path><path d="M-147,506L111,752L84,491Z" fill="rgb(182,223,220)" stroke="rgb(182,223,220)" stroke-width="1.51"></path><path d="M111,752L131,985L335,756Z" fill="rgb(149,188,206)" stroke="rgb(149,188,206)" stroke-width="1.51"></path><path d="M2280,919L2168,709L2049,748Z" fill="rgb(33,103,161)" stroke="rgb(33,103,161)" stroke-width="1.51"></path><path d="M2049,748L2168,709L1958,510Z" fill="rgb(55,121,169)" stroke="rgb(55,121,169)" stroke-width="1.51"></path><path d="M2060,316L2202,141L2019,128Z" fill="rgb(126,146,170)" stroke="rgb(126,146,170)" stroke-width="1.51"></path><path d="M2019,128L2234,-46L1970,-92Z" fill="rgb(141,152,184)" stroke="rgb(141,152,184)" stroke-width="1.51"></path><path d="M2280,919L2049,748L1964,908Z" fill="rgb(24,95,156)" stroke="rgb(24,95,156)" stroke-width="1.51"></path><path d="M163,-295L58,-60L353,-60Z" fill="rgb(238,249,231)" stroke="rgb(238,249,231)" stroke-width="1.51"></path><path d="M-116,129L-125,359L64,321Z" fill="rgb(226,244,218)" stroke="rgb(226,244,218)" stroke-width="1.51"></path><path d="M131,985L282,1231L379,945Z" fill="rgb(131,152,178)" stroke="rgb(131,152,178)" stroke-width="1.51"></path><path d="M566,1333L313,1401L726,1427Z" fill="rgb(117,143,162)" stroke="rgb(117,143,162)" stroke-width="1.51"></path><path d="M2254,307L2202,141L2060,316Z" fill="rgb(122,145,165)" stroke="rgb(122,145,165)" stroke-width="1.51"></path><path d="M1970,-92L2069,-264L1792,-298Z" fill="rgb(141,152,184)" stroke="rgb(141,152,184)" stroke-width="1.51"></path><path d="M333,-347L163,-295L353,-60Z" fill="rgb(234,247,227)" stroke="rgb(234,247,227)" stroke-width="1.51"></path><path d="M2276,572L2060,316L1958,510Z" fill="rgb(93,135,159)" stroke="rgb(93,135,159)" stroke-width="1.51"></path><path d="M1827,1335L1641,1196L1611,1325Z" fill="rgb(9,83,149)" stroke="rgb(9,83,149)" stroke-width="1.51"></path><path d="M1827,1335L1996,1160L1749,1130Z" fill="rgb(9,69,134)" stroke="rgb(9,69,134)" stroke-width="1.51"></path><path d="M1430,1423L1827,1335L1611,1325Z" fill="rgb(16,88,152)" stroke="rgb(16,88,152)" stroke-width="1.51"></path><path d="M2234,-46L2069,-264L1970,-92Z" fill="rgb(141,152,184)" stroke="rgb(141,152,184)" stroke-width="1.51"></path><path d="M1792,-298L2230,-268L1642,-330Z" fill="rgb(142,155,187)" stroke="rgb(142,155,187)" stroke-width="1.51"></path><path d="M2280,919L2276,572L2168,709Z" fill="rgb(42,111,165)" stroke="rgb(42,111,165)" stroke-width="1.51"></path><path d="M2168,709L2276,572L1958,510Z" fill="rgb(68,126,165)" stroke="rgb(68,126,165)" stroke-width="1.51"></path><path d="M-116,129L64,321L78,172Z" fill="rgb(230,246,223)" stroke="rgb(230,246,223)" stroke-width="1.51"></path><path d="M64,321L-125,359L84,491Z" fill="rgb(209,238,211)" stroke="rgb(209,238,211)" stroke-width="1.51"></path><path d="M58,-60L-116,129L78,172Z" fill="rgb(240,250,233)" stroke="rgb(240,250,233)" stroke-width="1.51"></path><path d="M-101,-145L-116,129L58,-60Z" fill="rgb(247,252,240)" stroke="rgb(247,252,240)" stroke-width="1.51"></path><path d="M-309,304L-147,506L-125,359Z" fill="rgb(210,238,211)" stroke="rgb(210,238,211)" stroke-width="1.51"></path><path d="M-125,359L-147,506L84,491Z" fill="rgb(201,234,213)" stroke="rgb(201,234,213)" stroke-width="1.51"></path><path d="M2202,141L2234,-46L2019,128Z" fill="rgb(135,150,179)" stroke="rgb(135,150,179)" stroke-width="1.51"></path><path d="M2254,307L2234,-46L2202,141Z" fill="rgb(130,148,174)" stroke="rgb(130,148,174)" stroke-width="1.51"></path><path d="M2230,-268L2234,-46L2254,307Z" fill="rgb(141,152,184)" stroke="rgb(141,152,184)" stroke-width="1.51"></path><path d="M131,985L66,1143L282,1231Z" fill="rgb(134,149,178)" stroke="rgb(134,149,178)" stroke-width="1.51"></path><path d="M282,1231L313,1401L566,1333Z" fill="rgb(125,146,168)" stroke="rgb(125,146,168)" stroke-width="1.51"></path><path d="M-143,903L66,1143L131,985Z" fill="rgb(145,163,195)" stroke="rgb(145,163,195)" stroke-width="1.51"></path><path d="M95,1382L313,1401L282,1231Z" fill="rgb(131,148,175)" stroke="rgb(131,148,175)" stroke-width="1.51"></path><path d="M-147,506L-154,787L111,752Z" fill="rgb(171,214,225)" stroke="rgb(171,214,225)" stroke-width="1.51"></path><path d="M2243,1140L2280,919L1964,908Z" fill="rgb(9,77,143)" stroke="rgb(9,77,143)" stroke-width="1.51"></path><path d="M2243,1140L1964,908L1996,1160Z" fill="rgb(8,65,130)" stroke="rgb(8,65,130)" stroke-width="1.51"></path><path d="M-116,129L-252,150L-125,359Z" fill="rgb(230,245,223)" stroke="rgb(230,245,223)" stroke-width="1.51"></path><path d="M-58,-283L-101,-145L58,-60Z" fill="rgb(247,252,240)" stroke="rgb(247,252,240)" stroke-width="1.51"></path><path d="M-154,787L-143,903L111,752Z" fill="rgb(158,194,215)" stroke="rgb(158,194,215)" stroke-width="1.51"></path><path d="M2234,-46L2230,-268L2069,-264Z" fill="rgb(141,152,184)" stroke="rgb(141,152,184)" stroke-width="1.51"></path><path d="M2069,-264L2230,-268L1792,-298Z" fill="rgb(141,152,184)" stroke="rgb(141,152,184)" stroke-width="1.51"></path><path d="M2276,572L2230,-268L2254,307Z" fill="rgb(126,146,169)" stroke="rgb(126,146,169)" stroke-width="1.51"></path><path d="M163,-295L-58,-283L58,-60Z" fill="rgb(245,251,237)" stroke="rgb(245,251,237)" stroke-width="1.51"></path><path d="M333,-347L-58,-283L163,-295Z" fill="rgb(240,250,233)" stroke="rgb(240,250,233)" stroke-width="1.51"></path><path d="M-342,-40L-252,150L-116,129Z" fill="rgb(240,250,234)" stroke="rgb(240,250,234)" stroke-width="1.51"></path><path d="M-147,506L-270,712L-154,787Z" fill="rgb(173,216,225)" stroke="rgb(173,216,225)" stroke-width="1.51"></path><path d="M-154,787L-270,712L-143,903Z" fill="rgb(160,196,216)" stroke="rgb(160,196,216)" stroke-width="1.51"></path><path d="M-342,-40L-116,129L-101,-145Z" fill="rgb(247,252,240)" stroke="rgb(247,252,240)" stroke-width="1.51"></path><path d="M2255,1356L2243,1140L1996,1160Z" fill="rgb(8,64,129)" stroke="rgb(8,64,129)" stroke-width="1.51"></path><path d="M66,1143L95,1382L282,1231Z" fill="rgb(134,149,178)" stroke="rgb(134,149,178)" stroke-width="1.51"></path><path d="M-96,1166L95,1382L66,1143Z" fill="rgb(140,151,183)" stroke="rgb(140,151,183)" stroke-width="1.51"></path><path d="M-143,903L-96,1166L66,1143Z" fill="rgb(141,154,186)" stroke="rgb(141,154,186)" stroke-width="1.51"></path><path d="M-361,564L-270,712L-147,506Z" fill="rgb(182,223,221)" stroke="rgb(182,223,221)" stroke-width="1.51"></path><path d="M1430,1423L2051,1417L1827,1335Z" fill="rgb(9,76,142)" stroke="rgb(9,76,142)" stroke-width="1.51"></path><path d="M1827,1335L2051,1417L1996,1160Z" fill="rgb(8,64,129)" stroke="rgb(8,64,129)" stroke-width="1.51"></path><path d="M-252,150L-309,304L-125,359Z" fill="rgb(226,244,218)" stroke="rgb(226,244,218)" stroke-width="1.51"></path><path d="M-347,1016L-96,1166L-143,903Z" fill="rgb(144,161,193)" stroke="rgb(144,161,193)" stroke-width="1.51"></path><path d="M-306,1350L-87,1429L-96,1166Z" fill="rgb(141,152,184)" stroke="rgb(141,152,184)" stroke-width="1.51"></path><path d="M-309,304L-361,564L-147,506Z" fill="rgb(200,233,213)" stroke="rgb(200,233,213)" stroke-width="1.51"></path><path d="M-309,304L-342,-40L-361,564Z" fill="rgb(225,243,218)" stroke="rgb(225,243,218)" stroke-width="1.51"></path><path d="M-252,150L-342,-40L-309,304Z" fill="rgb(236,248,229)" stroke="rgb(236,248,229)" stroke-width="1.51"></path><path d="M-327,-271L-342,-40L-101,-145Z" fill="rgb(247,252,240)" stroke="rgb(247,252,240)" stroke-width="1.51"></path><path d="M2051,1417L2255,1356L1996,1160Z" fill="rgb(8,64,129)" stroke="rgb(8,64,129)" stroke-width="1.51"></path><path d="M2243,1140L2255,1356L2280,919Z" fill="rgb(8,64,129)" stroke="rgb(8,64,129)" stroke-width="1.51"></path><path d="M-96,1166L-87,1429L95,1382Z" fill="rgb(141,152,184)" stroke="rgb(141,152,184)" stroke-width="1.51"></path><path d="M95,1382L-87,1429L313,1401Z" fill="rgb(136,150,180)" stroke="rgb(136,150,180)" stroke-width="1.51"></path><path d="M313,1401L-87,1429L726,1427Z" fill="rgb(128,146,171)" stroke="rgb(128,146,171)" stroke-width="1.51"></path><path d="M-347,1016L-143,903L-270,712Z" fill="rgb(154,185,211)" stroke="rgb(154,185,211)" stroke-width="1.51"></path><path d="M-361,564L-347,1016L-270,712Z" fill="rgb(163,201,219)" stroke="rgb(163,201,219)" stroke-width="1.51"></path><path d="M333,-347L-327,-271L-58,-283Z" fill="rgb(247,252,240)" stroke="rgb(247,252,240)" stroke-width="1.51"></path><path d="M-58,-283L-327,-271L-101,-145Z" fill="rgb(247,252,240)" stroke="rgb(247,252,240)" stroke-width="1.51"></path><path d="M-347,1016L-321,1195L-96,1166Z" fill="rgb(141,152,184)" stroke="rgb(141,152,184)" stroke-width="1.51"></path><path d="M-347,1016L-306,1350L-321,1195Z" fill="rgb(141,152,184)" stroke="rgb(141,152,184)" stroke-width="1.51"></path><path d="M-321,1195L-306,1350L-96,1166Z" fill="rgb(141,152,184)" stroke="rgb(141,152,184)" stroke-width="1.51"></path></svg>
